<?xml version="1.0" encoding="UTF-8" standalone="no"?><svg xmlns="http://www.w3.org/2000/svg" xmlns:xlink="http://www.w3.org/1999/xlink" contentScriptType="application/ecmascript" contentStyleType="text/css" height="387px" preserveAspectRatio="none" style="width:720px;height:387px;" version="1.1" viewBox="0 0 720 387" width="720px" zoomAndPan="magnify"><defs><filter height="300%" id="f1q4s9ecvfm5ad" width="300%" x="-1" y="-1"><feGaussianBlur result="blurOut" stdDeviation="2.0"/><feColorMatrix in="blurOut" result="blurOut2" type="matrix" values="0 0 0 0 0 0 0 0 0 0 0 0 0 0 0 0 0 0 .4 0"/><feOffset dx="4.0" dy="4.0" in="blurOut2" result="blurOut3"/><feBlend in="SourceGraphic" in2="blurOut3" mode="normal"/></filter></defs><g><!--class Plant--><rect fill="#FEFECE" filter="url(#f1q4s9ecvfm5ad)" height="86.4141" id="Plant" style="stroke: #A80036; stroke-width: 1.5;" width="139" x="115.75" y="175"/><ellipse cx="165.5" cy="191" fill="#A9DCDF" rx="11" ry="11" style="stroke: #A80036; stroke-width: 1.0;"/><path d="M165.5313,188.0938 L164.1719,191.5 L166.8281,191.5 L165.5313,188.0938 Z M164.2656,184.5 L166.7344,184.5 L169.5,196.5 L167.0625,196.5 L166.3125,193.5 L164.6719,193.5 L163.9375,196.5 L161.5,196.5 L164.2656,184.5 Z "/><text fill="#000000" font-family="sans-serif" font-size="12" font-style="italic" lengthAdjust="spacingAndGlyphs" textLength="31" x="186" y="195.1543">Plant</text><line style="stroke: #A80036; stroke-width: 1.5;" x1="116.75" x2="253.75" y1="207" y2="207"/><polygon fill="none" points="126.75,213.9023,130.75,217.9023,126.75,221.9023,122.75,217.9023" style="stroke: #B38D22; stroke-width: 1.0;"/><text fill="#000000" font-family="sans-serif" font-size="11" lengthAdjust="spacingAndGlyphs" textLength="113" x="135.75" y="221.2104">monthlyProduce: int</text><rect fill="none" height="6" style="stroke: #C82930; stroke-width: 1.0;" width="6" x="123.75" y="228.707"/><text fill="#000000" font-family="sans-serif" font-size="11" lengthAdjust="spacingAndGlyphs" textLength="102" x="135.75" y="234.0151">traits: List&lt;Trait&gt;</text><line style="stroke: #A80036; stroke-width: 1.5;" x1="116.75" x2="253.75" y1="240.6094" y2="240.6094"/><ellipse cx="126.75" cy="252.5117" fill="#84BE84" rx="3" ry="3" style="stroke: #038048; stroke-width: 1.0;"/><text fill="#000000" font-family="sans-serif" font-size="11" lengthAdjust="spacingAndGlyphs" textLength="94" x="135.75" y="254.8198">growFood(): void</text><!--class AlmondTree--><rect fill="#FEFECE" filter="url(#f1q4s9ecvfm5ad)" height="48" id="AlmondTree" style="stroke: #A80036; stroke-width: 1.5;" width="106" x="6.5" y="328"/><ellipse cx="21.5" cy="344" fill="#ADD1B2" rx="11" ry="11" style="stroke: #A80036; stroke-width: 1.0;"/><path d="M24.5,349 Q23.8906,349.5 23.2344,349.75 Q22.5781,350 21.8438,350 Q19.2344,350 17.8672,348.4609 Q16.5,346.9219 16.5,344 Q16.5,341.0781 17.8672,339.5391 Q19.2344,338 21.8438,338 Q22.5781,338 23.25,338.25 Q23.9219,338.5 24.5,339 L24.5,342 Q23.8906,340.9688 23.3125,340.4844 Q22.7344,340 22.125,340 Q20.8281,340 20.1641,341.0078 Q19.5,342.0156 19.5,344 Q19.5,345.9844 20.1641,346.9922 Q20.8281,348 22.125,348 Q22.7344,348 23.3125,347.5156 Q23.8906,347.0313 24.5,346 L24.5,349 Z "/><text fill="#000000" font-family="sans-serif" font-size="12" lengthAdjust="spacingAndGlyphs" textLength="74" x="35.5" y="348.1543">AlmondTree</text><line style="stroke: #A80036; stroke-width: 1.5;" x1="7.5" x2="111.5" y1="360" y2="360"/><line style="stroke: #A80036; stroke-width: 1.5;" x1="7.5" x2="111.5" y1="368" y2="368"/><!--class Spruce--><rect fill="#FEFECE" filter="url(#f1q4s9ecvfm5ad)" height="48" id="Spruce" style="stroke: #A80036; stroke-width: 1.5;" width="76" x="147" y="328"/><ellipse cx="162" cy="344" fill="#ADD1B2" rx="11" ry="11" style="stroke: #A80036; stroke-width: 1.0;"/><path d="M165,349 Q164.3906,349.5 163.7344,349.75 Q163.0781,350 162.3438,350 Q159.7344,350 158.3672,348.4609 Q157,346.9219 157,344 Q157,341.0781 158.3672,339.5391 Q159.7344,338 162.3438,338 Q163.0781,338 163.75,338.25 Q164.4219,338.5 165,339 L165,342 Q164.3906,340.9688 163.8125,340.4844 Q163.2344,340 162.625,340 Q161.3281,340 160.6641,341.0078 Q160,342.0156 160,344 Q160,345.9844 160.6641,346.9922 Q161.3281,348 162.625,348 Q163.2344,348 163.8125,347.5156 Q164.3906,347.0313 165,346 L165,349 Z "/><text fill="#000000" font-family="sans-serif" font-size="12" lengthAdjust="spacingAndGlyphs" textLength="44" x="176" y="348.1543">Spruce</text><line style="stroke: #A80036; stroke-width: 1.5;" x1="148" x2="222" y1="360" y2="360"/><line style="stroke: #A80036; stroke-width: 1.5;" x1="148" x2="222" y1="368" y2="368"/><!--class Juniper--><rect fill="#FEFECE" filter="url(#f1q4s9ecvfm5ad)" height="48" id="Juniper" style="stroke: #A80036; stroke-width: 1.5;" width="75" x="258.75" y="328"/><ellipse cx="273.75" cy="344" fill="#ADD1B2" rx="11" ry="11" style="stroke: #A80036; stroke-width: 1.0;"/><path d="M276.75,349 Q276.1406,349.5 275.4844,349.75 Q274.8281,350 274.0938,350 Q271.4844,350 270.1172,348.4609 Q268.75,346.9219 268.75,344 Q268.75,341.0781 270.1172,339.5391 Q271.4844,338 274.0938,338 Q274.8281,338 275.5,338.25 Q276.1719,338.5 276.75,339 L276.75,342 Q276.1406,340.9688 275.5625,340.4844 Q274.9844,340 274.375,340 Q273.0781,340 272.4141,341.0078 Q271.75,342.0156 271.75,344 Q271.75,345.9844 272.4141,346.9922 Q273.0781,348 274.375,348 Q274.9844,348 275.5625,347.5156 Q276.1406,347.0313 276.75,346 L276.75,349 Z "/><text fill="#000000" font-family="sans-serif" font-size="12" lengthAdjust="spacingAndGlyphs" textLength="43" x="287.75" y="348.1543">Juniper</text><line style="stroke: #A80036; stroke-width: 1.5;" x1="259.75" x2="332.75" y1="360" y2="360"/><line style="stroke: #A80036; stroke-width: 1.5;" x1="259.75" x2="332.75" y1="368" y2="368"/><!--class Farm--><rect fill="#FEFECE" filter="url(#f1q4s9ecvfm5ad)" height="99.2188" id="Farm" style="stroke: #A80036; stroke-width: 1.5;" width="339" x="15.75" y="8.5"/><ellipse cx="165.5" cy="24.5" fill="#ADD1B2" rx="11" ry="11" style="stroke: #A80036; stroke-width: 1.0;"/><path d="M168.5,29.5 Q167.8906,30 167.2344,30.25 Q166.5781,30.5 165.8438,30.5 Q163.2344,30.5 161.8672,28.9609 Q160.5,27.4219 160.5,24.5 Q160.5,21.5781 161.8672,20.0391 Q163.2344,18.5 165.8438,18.5 Q166.5781,18.5 167.25,18.75 Q167.9219,19 168.5,19.5 L168.5,22.5 Q167.8906,21.4688 167.3125,20.9844 Q166.7344,20.5 166.125,20.5 Q164.8281,20.5 164.1641,21.5078 Q163.5,22.5156 163.5,24.5 Q163.5,26.4844 164.1641,27.4922 Q164.8281,28.5 166.125,28.5 Q166.7344,28.5 167.3125,28.0156 Q167.8906,27.5313 168.5,26.5 L168.5,29.5 Z "/><text fill="#000000" font-family="sans-serif" font-size="12" lengthAdjust="spacingAndGlyphs" textLength="31" x="186" y="28.6543">Farm</text><line style="stroke: #A80036; stroke-width: 1.5;" x1="16.75" x2="353.75" y1="40.5" y2="40.5"/><rect fill="none" height="6" style="stroke: #C82930; stroke-width: 1.0;" width="6" x="23.75" y="49.4023"/><text fill="#000000" font-family="sans-serif" font-size="11" lengthAdjust="spacingAndGlyphs" textLength="108" x="35.75" y="54.7104">plants: Set&lt;Plant&gt;</text><line style="stroke: #A80036; stroke-width: 1.5;" x1="16.75" x2="353.75" y1="61.3047" y2="61.3047"/><ellipse cx="26.75" cy="73.207" fill="#84BE84" rx="3" ry="3" style="stroke: #038048; stroke-width: 1.0;"/><text fill="#000000" font-family="sans-serif" font-size="11" lengthAdjust="spacingAndGlyphs" textLength="159" x="35.75" y="75.5151">plantPlant(plant: Plant): void</text><ellipse cx="26.75" cy="86.0117" fill="#84BE84" rx="3" ry="3" style="stroke: #038048; stroke-width: 1.0;"/><text fill="#000000" font-family="sans-serif" font-size="11" lengthAdjust="spacingAndGlyphs" textLength="313" x="35.75" y="88.3198">startProductionForNumberOfMonths(numOfMonths: int)</text><ellipse cx="26.75" cy="98.8164" fill="#84BE84" rx="3" ry="3" style="stroke: #038048; stroke-width: 1.0;"/><text fill="#000000" font-family="sans-serif" font-size="11" lengthAdjust="spacingAndGlyphs" textLength="136" x="35.75" y="101.1245">getTotalProduction(): int</text><!--class Trait--><rect fill="#FEFECE" filter="url(#f1q4s9ecvfm5ad)" height="86.4141" id="Trait" style="stroke: #A80036; stroke-width: 1.5;" width="133" x="442.75" y="15"/><ellipse cx="491" cy="31" fill="#A9DCDF" rx="11" ry="11" style="stroke: #A80036; stroke-width: 1.0;"/><path d="M491.0313,28.0938 L489.6719,31.5 L492.3281,31.5 L491.0313,28.0938 Z M489.7656,24.5 L492.2344,24.5 L495,36.5 L492.5625,36.5 L491.8125,33.5 L490.1719,33.5 L489.4375,36.5 L487,36.5 L489.7656,24.5 Z "/><text fill="#000000" font-family="sans-serif" font-size="12" font-style="italic" lengthAdjust="spacingAndGlyphs" textLength="28" x="511.5" y="35.1543">Trait</text><line style="stroke: #A80036; stroke-width: 1.5;" x1="443.75" x2="574.75" y1="47" y2="47"/><rect fill="none" height="6" style="stroke: #C82930; stroke-width: 1.0;" width="6" x="450.75" y="55.9023"/><text fill="#000000" font-family="sans-serif" font-size="11" lengthAdjust="spacingAndGlyphs" textLength="64" x="462.75" y="61.2104">plant: Plant</text><line style="stroke: #A80036; stroke-width: 1.5;" x1="443.75" x2="574.75" y1="67.8047" y2="67.8047"/><ellipse cx="453.75" cy="79.707" fill="#84BE84" rx="3" ry="3" style="stroke: #038048; stroke-width: 1.0;"/><text fill="#000000" font-family="sans-serif" font-size="11" lengthAdjust="spacingAndGlyphs" textLength="98" x="462.75" y="82.0151">Trait(plant: Plant)</text><ellipse cx="453.75" cy="92.5117" fill="#84BE84" rx="3" ry="3" style="stroke: #038048; stroke-width: 1.0;"/><text fill="#000000" font-family="sans-serif" font-size="11" lengthAdjust="spacingAndGlyphs" textLength="107" x="462.75" y="94.8198">apply(): TraitResult</text><!--class ShroomGrower--><rect fill="#FEFECE" filter="url(#f1q4s9ecvfm5ad)" height="99.2188" id="ShroomGrower" style="stroke: #A80036; stroke-width: 1.5;" width="164" x="358" y="168.5"/><ellipse cx="391" cy="184.5" fill="#ADD1B2" rx="11" ry="11" style="stroke: #A80036; stroke-width: 1.0;"/><path d="M394,189.5 Q393.3906,190 392.7344,190.25 Q392.0781,190.5 391.3438,190.5 Q388.7344,190.5 387.3672,188.9609 Q386,187.4219 386,184.5 Q386,181.5781 387.3672,180.0391 Q388.7344,178.5 391.3438,178.5 Q392.0781,178.5 392.75,178.75 Q393.4219,179 394,179.5 L394,182.5 Q393.3906,181.4688 392.8125,180.9844 Q392.2344,180.5 391.625,180.5 Q390.3281,180.5 389.6641,181.5078 Q389,182.5156 389,184.5 Q389,186.4844 389.6641,187.4922 Q390.3281,188.5 391.625,188.5 Q392.2344,188.5 392.8125,188.0156 Q393.3906,187.5313 394,186.5 L394,189.5 Z "/><text fill="#000000" font-family="sans-serif" font-size="12" lengthAdjust="spacingAndGlyphs" textLength="92" x="409" y="188.6543">ShroomGrower</text><line style="stroke: #A80036; stroke-width: 1.5;" x1="359" x2="521" y1="200.5" y2="200.5"/><rect fill="none" height="6" style="stroke: #C82930; stroke-width: 1.0;" width="6" x="366" y="209.4023"/><text fill="#000000" font-family="sans-serif" font-size="11" lengthAdjust="spacingAndGlyphs" textLength="138" x="378" y="214.7104">shroomGrowChance: int</text><rect fill="none" height="6" style="stroke: #C82930; stroke-width: 1.0;" width="6" x="366" y="222.207"/><text fill="#000000" font-family="sans-serif" font-size="11" lengthAdjust="spacingAndGlyphs" textLength="131" x="378" y="227.5151">productionIncrease: int</text><rect fill="none" height="6" style="stroke: #C82930; stroke-width: 1.0;" width="6" x="366" y="235.0117"/><text fill="#000000" font-family="sans-serif" font-size="11" lengthAdjust="spacingAndGlyphs" textLength="80" x="378" y="240.3198">rotChance: int</text><rect fill="none" height="6" style="stroke: #C82930; stroke-width: 1.0;" width="6" x="366" y="247.8164"/><text fill="#000000" font-family="sans-serif" font-size="11" lengthAdjust="spacingAndGlyphs" textLength="136" x="378" y="253.1245">productionDecrease: int</text><line style="stroke: #A80036; stroke-width: 1.5;" x1="359" x2="521" y1="259.7188" y2="259.7188"/><!--class EverGreen--><rect fill="#FEFECE" filter="url(#f1q4s9ecvfm5ad)" height="60.8047" id="EverGreen" style="stroke: #A80036; stroke-width: 1.5;" width="146" x="557" y="187.5"/><ellipse cx="594.05" cy="203.5" fill="#ADD1B2" rx="11" ry="11" style="stroke: #A80036; stroke-width: 1.0;"/><path d="M597.05,208.5 Q596.4406,209 595.7844,209.25 Q595.1281,209.5 594.3938,209.5 Q591.7844,209.5 590.4172,207.9609 Q589.05,206.4219 589.05,203.5 Q589.05,200.5781 590.4172,199.0391 Q591.7844,197.5 594.3938,197.5 Q595.1281,197.5 595.8,197.75 Q596.4719,198 597.05,198.5 L597.05,201.5 Q596.4406,200.4688 595.8625,199.9844 Q595.2844,199.5 594.675,199.5 Q593.3781,199.5 592.7141,200.5078 Q592.05,201.5156 592.05,203.5 Q592.05,205.4844 592.7141,206.4922 Q593.3781,207.5 594.675,207.5 Q595.2844,207.5 595.8625,207.0156 Q596.4406,206.5313 597.05,205.5 L597.05,208.5 Z "/><text fill="#000000" font-family="sans-serif" font-size="12" lengthAdjust="spacingAndGlyphs" textLength="65" x="612.95" y="207.6543">EverGreen</text><line style="stroke: #A80036; stroke-width: 1.5;" x1="558" x2="702" y1="219.5" y2="219.5"/><rect fill="none" height="6" style="stroke: #C82930; stroke-width: 1.0;" width="6" x="565" y="228.4023"/><text fill="#000000" font-family="sans-serif" font-size="11" lengthAdjust="spacingAndGlyphs" textLength="120" x="577" y="233.7104">monthsUntilGrow: int</text><line style="stroke: #A80036; stroke-width: 1.5;" x1="558" x2="702" y1="240.3047" y2="240.3047"/><!--class TraitResult--><rect fill="#FEFECE" filter="url(#f1q4s9ecvfm5ad)" height="73.6094" id="TraitResult" style="stroke: #A80036; stroke-width: 1.5;" width="99" x="610.75" y="21"/><ellipse cx="625.75" cy="37" fill="#EB937F" rx="11" ry="11" style="stroke: #A80036; stroke-width: 1.0;"/><path d="M629.75,43 L621.75,43 L621.75,31 L629.75,31 L629.75,33 L624.75,33 L624.75,36 L628.75,36 L628.75,38 L624.75,38 L624.75,41 L629.75,41 L629.75,43 Z "/><text fill="#000000" font-family="sans-serif" font-size="12" lengthAdjust="spacingAndGlyphs" textLength="67" x="639.75" y="41.1543">TraitResult</text><line style="stroke: #A80036; stroke-width: 1.5;" x1="611.75" x2="708.75" y1="53" y2="53"/><text fill="#000000" font-family="sans-serif" font-size="11" lengthAdjust="spacingAndGlyphs" textLength="58" x="616.75" y="67.2104">CONTINUE</text><text fill="#000000" font-family="sans-serif" font-size="11" lengthAdjust="spacingAndGlyphs" textLength="38" x="616.75" y="80.0151">ABORT</text><line style="stroke: #A80036; stroke-width: 1.5;" x1="611.75" x2="708.75" y1="86.6094" y2="86.6094"/><!--link Plant to AlmondTree--><path d="M130.802,275.779 C113.379,294.0318 95.0396,313.2443 81.2566,327.6836 " fill="none" id="Plant-AlmondTree" style="stroke: #A80036; stroke-width: 1.0;"/><polygon fill="none" points="125.913,270.762,144.786,261.129,136.04,280.429,125.913,270.762" style="stroke: #A80036; stroke-width: 1.0;"/><!--link Plant to Spruce--><path d="M185,281.2505 C185,297.8079 185,314.681 185,327.6836 " fill="none" id="Plant-Spruce" style="stroke: #A80036; stroke-width: 1.0;"/><polygon fill="none" points="178,281.1286,185,261.129,192,281.1285,178,281.1286" style="stroke: #A80036; stroke-width: 1.0;"/><!--link Plant to Juniper--><path d="M233.434,276.597 C248.576,294.6042 264.432,313.4598 276.393,327.6836 " fill="none" id="Plant-Juniper" style="stroke: #A80036; stroke-width: 1.0;"/><polygon fill="none" points="227.941,280.941,220.426,261.129,238.656,271.931,227.941,280.941" style="stroke: #A80036; stroke-width: 1.0;"/><!--link Farm to Plant--><path d="M185,120.895 C185,138.979 185,158.318 185,174.872 " fill="none" id="Farm-Plant" style="stroke: #A80036; stroke-width: 1.0;"/><polygon fill="#FFFFFF" points="185,107.694,181,113.694,185,119.694,189,113.694,185,107.694" style="stroke: #A80036; stroke-width: 1.0;"/><!--link Trait to ShroomGrower--><path d="M482.413,119.881 C475.397,135.946 467.92,153.068 461.229,168.39 " fill="none" id="Trait-ShroomGrower" style="stroke: #A80036; stroke-width: 1.0;"/><polygon fill="none" points="476.09,116.868,490.509,101.341,488.92,122.471,476.09,116.868" style="stroke: #A80036; stroke-width: 1.0;"/><!--link Trait to EverGreen--><path d="M553.588,117.222 C571.76,140.951 591.993,167.371 607.072,187.061 " fill="none" id="Trait-EverGreen" style="stroke: #A80036; stroke-width: 1.0;"/><polygon fill="none" points="548.028,121.476,541.426,101.341,559.144,112.964,548.028,121.476" style="stroke: #A80036; stroke-width: 1.0;"/><!--
@startuml

Plant <|- - AlmondTree
Plant <|- - Spruce
Plant <|- - Juniper
Farm o- - Plant

Trait <|- - ShroomGrower
Trait <|- - EverGreen

abstract class Plant {
  # monthlyProduce: int
  - traits: List<Trait>
  + growFood(): void
}

abstract class Trait {
  - plant: Plant
  + Trait(plant: Plant)
  + apply(): TraitResult
}

enum TraitResult {
  CONTINUE
  ABORT
}

class Farm {
  - plants: Set<Plant>
  + plantPlant(plant: Plant): void
  + startProductionForNumberOfMonths(numOfMonths: int)
  + getTotalProduction(): int
}

class EverGreen {
  - monthsUntilGrow: int
}

class ShroomGrower {
  - shroomGrowChance: int
  - productionIncrease: int
  - rotChance: int
  - productionDecrease: int
}

@enduml

PlantUML version 1.2019.08(Sat Jul 13 21:25:14 CEST 2019)
(GPL source distribution)
Java Runtime: OpenJDK Runtime Environment
JVM: OpenJDK 64-Bit Server VM
Java Version: 1.8.0_222-ga
Operating System: Linux
OS Version: 5.0.19-rt11
Default Encoding: UTF-8
Language: en
Country: US
--></g></svg>